<svg width="202" height="39" viewBox="0 0 202 39" fill="none" xmlns="http://www.w3.org/2000/svg">
<path d="M9.33594 31.1849C9.33594 31.9208 9.93338 32.5182 10.6693 32.5182C11.4052 32.5182 12.0026 31.9208 12.0026 31.1849C12.0026 30.449 11.4052 29.8516 10.6693 29.8516C9.93338 29.8516 9.33594 30.449 9.33594 31.1849V31.1849" stroke="#0B0B0B" stroke-width="2.66667" stroke-linecap="round" stroke-linejoin="round"/>
<path d="M24 31.1849C24 31.9208 24.5974 32.5182 25.3333 32.5182C26.0692 32.5182 26.6667 31.9208 26.6667 31.1849C26.6667 30.449 26.0692 29.8516 25.3333 29.8516C24.5974 29.8516 24 30.449 24 31.1849V31.1849" stroke="#0B0B0B" stroke-width="2.66667" stroke-linecap="round" stroke-linejoin="round"/>
<path d="M2.73438 5.92188H5.40104L8.94771 22.4819C9.21609 23.7329 10.3352 24.617 11.6144 24.5885H24.6544C25.9046 24.5865 26.9856 23.7162 27.2544 22.4952L29.4544 12.5885H6.82771" stroke="#0B0B0B" stroke-width="2.66667" stroke-linecap="round" stroke-linejoin="round"/>
<path d="M53.2074 27.2344C51.6604 27.2344 50.2755 26.8825 49.0526 26.1789C47.8298 25.4752 46.8655 24.4556 46.1595 23.1199C45.4536 21.7843 45.1006 20.1714 45.1006 18.2812C45.1006 16.3791 45.4567 14.7591 46.169 13.4214C46.8813 12.0836 47.8499 11.0631 49.0748 10.3597C50.2997 9.65637 51.6773 9.30469 53.2074 9.30469C54.1999 9.30469 55.1246 9.44309 55.9815 9.71988C56.8384 9.99668 57.5983 10.4011 58.2613 10.933C58.9243 11.465 59.4679 12.1151 59.8922 12.8833C60.3165 13.6515 60.5941 14.527 60.725 15.5098H57.1062C57.0234 15.0306 56.8717 14.6045 56.651 14.2315C56.4304 13.8586 56.1529 13.5412 55.8184 13.2793C55.484 13.0174 55.1025 12.8189 54.674 12.6838C54.2455 12.5486 53.782 12.481 53.2834 12.481C52.3757 12.481 51.5791 12.7076 50.8936 13.1608C50.2081 13.614 49.6762 14.272 49.2979 15.1348C48.9196 15.9976 48.7305 17.0464 48.7305 18.2812C48.7305 19.5378 48.9226 20.5964 49.3069 21.4571C49.6912 22.3178 50.224 22.9665 50.9053 23.4031C51.5866 23.8397 52.3751 24.058 53.2707 24.058C53.7693 24.058 54.2318 23.9896 54.6582 23.8526C55.0846 23.7157 55.4671 23.5172 55.8058 23.2571C56.1445 22.997 56.4262 22.6796 56.651 22.3048C56.8759 21.9301 57.0318 21.5049 57.1188 21.0293H60.7377C60.6399 21.8397 60.3989 22.6155 60.0147 23.3566C59.6304 24.0977 59.1163 24.7604 58.4724 25.3448C57.8284 25.9292 57.0653 26.3902 56.1831 26.7279C55.3009 27.0655 54.309 27.2344 53.2074 27.2344ZM62.8691 27L68.8418 9.53906H73.5211L79.6455 27H75.669L72.8708 18.5772C72.5304 17.4893 72.1876 16.2981 71.8425 15.0036C71.4974 13.709 71.1332 12.2985 70.75 10.7719H71.5262C71.155 12.3056 70.8077 13.7234 70.4843 15.0251C70.161 16.3269 69.8386 17.5109 69.5174 18.5772L66.8184 27H62.8691ZM66.6008 22.9477V20.1417H75.9137V22.9477H66.6008ZM82.9934 27V9.53906H89.8053C91.131 9.53906 92.2585 9.77359 93.1881 10.2427C94.1176 10.7117 94.8269 11.3725 95.316 12.2251C95.805 13.0777 96.0496 14.0763 96.0496 15.2208C96.0496 16.3738 95.8019 17.3656 95.3065 18.1962C94.8111 19.0268 94.0921 19.6636 93.1496 20.1065C92.2071 20.5494 91.0646 20.7708 89.7221 20.7708H85.1089V17.8727H89.1547C89.8825 17.8727 90.4824 17.7727 90.9545 17.5728C91.4266 17.3729 91.7789 17.0766 92.0114 16.6839C92.2439 16.2911 92.3602 15.8035 92.3602 15.2208C92.3602 14.631 92.2439 14.134 92.0114 13.7298C91.7789 13.3257 91.4257 13.018 90.9518 12.8067C90.4779 12.5953 89.8753 12.4897 89.1439 12.4897H86.5743V27H82.9934ZM92.7082 27L88.4642 19.0544H92.3389L96.6786 27H92.7082ZM99.9551 27V9.53906H106.767C108.093 9.53906 109.22 9.77359 110.15 10.2427C111.079 10.7117 111.789 11.3725 112.278 12.2251C112.767 13.0777 113.011 14.0763 113.011 15.2208C113.011 16.3738 112.764 17.3656 112.268 18.1962C111.773 19.0268 111.054 19.6636 110.111 20.1065C109.169 20.5494 108.026 20.7708 106.684 20.7708H102.071V17.8727H106.116C106.844 17.8727 107.444 17.7727 107.916 17.5728C108.388 17.3729 108.741 17.0766 108.973 16.6839C109.206 16.2911 109.322 15.8035 109.322 15.2208C109.322 14.631 109.206 14.134 108.973 13.7298C108.741 13.3257 108.387 13.018 107.914 12.8067C107.44 12.5953 106.837 12.4897 106.106 12.4897H103.536V27H99.9551ZM109.67 27L105.426 19.0544H109.301L113.64 27H109.67ZM116.917 27V9.53906H128.608V12.5077H120.498V16.7222H127.989V19.6402H120.498V24.0313H128.631V27H116.917ZM132.695 27V9.53906H144.184V12.5077H136.276V17.3831H143.412V20.3012H136.276V27H132.695ZM155.654 27.2344C154.111 27.2344 152.724 26.8825 151.493 26.1789C150.262 25.4752 149.289 24.4556 148.575 23.1199C147.861 21.7843 147.504 20.1714 147.504 18.2812C147.504 16.3791 147.861 14.7591 148.575 13.4214C149.289 12.0836 150.262 11.0631 151.493 10.3597C152.724 9.65637 154.111 9.30469 155.654 9.30469C157.197 9.30469 158.582 9.65637 159.809 10.3597C161.037 11.0631 162.007 12.0836 162.722 13.4214C163.436 14.7591 163.793 16.3791 163.793 18.2812C163.793 20.1756 163.436 21.7906 162.722 23.1263C162.007 24.4619 161.037 25.4805 159.809 26.182C158.582 26.8836 157.197 27.2344 155.654 27.2344ZM155.654 24.058C156.558 24.058 157.348 23.8366 158.023 23.3936C158.698 22.9506 159.224 22.2988 159.6 21.4381C159.976 20.5774 160.163 19.5251 160.163 18.2812C160.163 17.026 159.976 15.9669 159.6 15.1041C159.224 14.2413 158.698 13.5884 158.023 13.1455C157.348 12.7025 156.558 12.481 155.654 12.481C154.75 12.481 153.96 12.7034 153.283 13.1482C152.606 13.5929 152.078 14.2467 151.701 15.1095C151.323 15.9723 151.134 17.0295 151.134 18.2812C151.134 19.5251 151.323 20.5765 151.701 21.4354C152.078 22.2943 152.606 22.9461 153.283 23.3909C153.96 23.8357 154.75 24.058 155.654 24.058ZM174.879 27.2433C173.436 27.2433 172.174 26.9769 171.091 26.4442C170.009 25.9114 169.169 25.1668 168.571 24.2103C167.972 23.2539 167.673 22.1421 167.673 20.8751V9.53906H171.254V20.579C171.254 21.2589 171.405 21.8617 171.706 22.3874C172.008 22.9132 172.429 23.3267 172.971 23.6279C173.513 23.929 174.149 24.0796 174.879 24.0796C175.612 24.0796 176.25 23.929 176.792 23.6279C177.335 23.3267 177.756 22.9132 178.055 22.3874C178.355 21.8617 178.505 21.2589 178.505 20.579V9.53906H182.086V20.8751C182.086 22.1421 181.786 23.2539 181.185 24.2103C180.585 25.1668 179.744 25.9114 178.663 26.4442C177.583 26.9769 176.321 27.2433 174.879 27.2433ZM186.439 27V9.53906H193.251C194.577 9.53906 195.705 9.77359 196.634 10.2427C197.564 10.7117 198.273 11.3725 198.762 12.2251C199.251 13.0777 199.496 14.0763 199.496 15.2208C199.496 16.3738 199.248 17.3656 198.753 18.1962C198.257 19.0268 197.538 19.6636 196.596 20.1065C195.653 20.5494 194.511 20.7708 193.168 20.7708H188.555V17.8727H192.601C193.329 17.8727 193.929 17.7727 194.401 17.5728C194.873 17.3729 195.225 17.0766 195.458 16.6839C195.69 16.2911 195.806 15.8035 195.806 15.2208C195.806 14.631 195.69 14.134 195.458 13.7298C195.225 13.3257 194.872 13.018 194.398 12.8067C193.924 12.5953 193.321 12.4897 192.59 12.4897H190.02V27H186.439ZM196.154 27L191.91 19.0544H195.785L200.125 27H196.154Z" fill="#0B0B0B"/>
</svg>
