<?xml version="1.0" encoding="UTF-8"?>
<svg version="1.1" xmlns="http://www.w3.org/2000/svg" width="512" height="512">
<path d="M0 0 C1.01790619 0.00215515 2.03581238 0.0043103 3.08456421 0.00653076 C17.69363523 0.05620146 32.02575853 0.30709809 46.375 3.3125 C47.34985352 3.51117676 48.32470703 3.70985352 49.32910156 3.91455078 C97.7109774 14.03517194 141.69928269 35.9516877 177.375 70.3125 C178.3640332 71.26068604 178.3640332 71.26068604 179.37304688 72.22802734 C188.86130305 81.37247479 197.6012044 90.66984009 205.375 101.3125 C206.23306152 102.46355017 207.09113451 103.61459177 207.94921875 104.765625 C213.98736829 112.95680614 219.34595521 121.47054105 224.375 130.3125 C224.73948242 130.94430176 225.10396484 131.57610352 225.47949219 132.22705078 C247.08534998 169.97532572 256.85198095 212.74189997 256.6875 255.9375 C256.68534485 256.95540619 256.6831897 257.97331238 256.68096924 259.02206421 C256.63129854 273.63113523 256.38040191 287.96325853 253.375 302.3125 C253.07698486 303.77478027 253.07698486 303.77478027 252.77294922 305.26660156 C242.65232806 353.6484774 220.7358123 397.63678269 186.375 433.3125 C185.74287598 433.97185547 185.11075195 434.63121094 184.45947266 435.31054688 C175.31502521 444.79880305 166.01765991 453.5387044 155.375 461.3125 C154.22394983 462.17056152 153.07290823 463.02863451 151.921875 463.88671875 C143.73224019 469.92427396 135.22961724 475.30707302 126.375 480.3125 C125.66778809 480.7146875 124.96057617 481.116875 124.23193359 481.53125 C101.09654164 494.5566741 75.92537591 503.30551461 49.9375 508.625 C49.21860596 508.77235596 48.49971191 508.91971191 47.7590332 509.0715332 C33.08339502 511.86090125 18.55831162 512.66142619 3.64770508 512.62817383 C0.70811513 512.6250221 -2.2304558 512.64854926 -5.16992188 512.67382812 C-18.54306192 512.71848737 -31.43916711 511.51301542 -44.625 509.3125 C-46.33055054 509.03031616 -46.33055054 509.03031616 -48.07055664 508.74243164 C-91.33802759 500.97044532 -132.38793216 480.98345309 -165.625 452.3125 C-166.37007813 451.67828125 -167.11515625 451.0440625 -167.8828125 450.390625 C-181.38779833 438.57948485 -194.05918743 425.82889772 -204.625 411.3125 C-205.48149066 410.16255169 -206.33826433 409.01281411 -207.1953125 407.86328125 C-213.23534209 399.67315742 -218.61867614 391.16870382 -223.625 382.3125 C-224.0271875 381.60528809 -224.429375 380.89807617 -224.84375 380.16943359 C-237.8691741 357.03404164 -246.61801461 331.86287591 -251.9375 305.875 C-252.08485596 305.15610596 -252.23221191 304.43721191 -252.3840332 303.6965332 C-255.35789088 288.05024391 -255.99800362 272.57681954 -255.9375 256.6875 C-255.93534485 255.66959381 -255.9331897 254.65168762 -255.93096924 253.60293579 C-255.88129854 238.99386477 -255.63040191 224.66174147 -252.625 210.3125 C-252.42632324 209.33764648 -252.22764648 208.36279297 -252.02294922 207.35839844 C-241.90232806 158.9765226 -219.9858123 114.98821731 -185.625 79.3125 C-184.99287598 78.65314453 -184.36075195 77.99378906 -183.70947266 77.31445312 C-174.56502521 67.82619695 -165.26765991 59.0862956 -154.625 51.3125 C-153.47394983 50.45443848 -152.32290823 49.59636549 -151.171875 48.73828125 C-142.98224019 42.70072604 -134.47961724 37.31792698 -125.625 32.3125 C-124.91778809 31.9103125 -124.21057617 31.508125 -123.48193359 31.09375 C-100.34654164 18.0683259 -75.17537591 9.31948539 -49.1875 4 C-48.46860596 3.85264404 -47.74971191 3.70528809 -47.0090332 3.5534668 C-31.36274391 0.57960912 -15.88931954 -0.06050362 0 0 Z M-181.625 166.3125 C-181.625 168.6225 -181.625 170.9325 -181.625 173.3125 C-180.97015625 173.49683594 -180.3153125 173.68117187 -179.640625 173.87109375 C-161.72959422 179.56315862 -149.3010696 194.20100548 -140.625 210.3125 C-137.56812468 216.49241756 -134.89886059 222.8508971 -132.1875 229.1875 C-131.40201389 231.00237422 -130.61553539 232.81681921 -129.828125 234.63085938 C-128.21005594 238.36214162 -126.59718755 242.09560232 -124.98876953 245.83105469 C-121.74052711 253.37122079 -118.45412877 260.89467535 -115.16928101 268.41894531 C-114.11587183 270.8334223 -113.06414559 273.24862562 -112.01293945 275.6640625 C-108.4572593 283.83276724 -104.88934238 291.99583763 -101.296875 300.1484375 C-92.05933991 321.11736611 -82.94614153 342.13489501 -73.96777344 363.21630859 C-69.90576358 372.74314131 -65.8024134 382.24823908 -61.56640625 391.69921875 C-61.18379135 392.55554398 -60.80117645 393.4118692 -60.40696716 394.29414368 C-60.05554153 395.07323593 -59.70411591 395.85232819 -59.34204102 396.6550293 C-59.03347672 397.34010056 -58.72491241 398.02517181 -58.40699768 398.73100281 C-57.72844845 400.31586269 -57.72844845 400.31586269 -56.625 401.3125 C-54.29202567 401.35342937 -51.95794775 401.35491723 -49.625 401.3125 C-43.43532885 389.64793545 -37.35269092 377.92994912 -31.3125 366.1875 C-18.59658717 341.46985863 -5.87455029 316.74958447 7.375 292.3125 C10.25012948 295.18762948 11.38514495 298.75061267 12.91796875 302.453125 C13.27465637 303.3031459 13.63134399 304.15316681 13.99884033 305.02894592 C14.77922965 306.88996979 15.5574187 308.75191742 16.33370972 310.61465454 C18.00495837 314.62394956 19.68748353 318.62847737 21.36952209 322.633255 C22.27020729 324.77780686 23.17037139 326.92257763 24.0700531 329.06755066 C29.10591056 341.06966023 34.18789433 353.05203625 39.28335571 365.02893066 C40.79358641 368.58052116 42.30051476 372.13350107 43.80737305 375.68652344 C44.74507313 377.89136401 45.68297045 380.09612072 46.62109375 382.30078125 C47.04328186 383.2979567 47.46546997 384.29513214 47.90045166 385.32252502 C50.21719319 390.75512915 52.67412578 396.05983208 55.375 401.3125 C57.685 401.3125 59.995 401.3125 62.375 401.3125 C72.12000594 379.39194596 81.79800836 357.4467049 91.215271 335.38311768 C97.71007992 320.16731319 104.27869143 304.98456673 110.875 289.8125 C117.6033419 274.33640975 124.30302645 258.84907577 130.9329834 243.33056641 C136.28569176 230.80524041 141.64443166 218.28251354 147.125 205.8125 C147.57834717 204.76884277 148.03169434 203.72518555 148.4987793 202.64990234 C157.74499015 181.7715861 157.74499015 181.7715861 168.0546875 177.09765625 C172.75427837 175.30824564 177.35248401 173.8554747 182.375 173.3125 C182.375 171.0025 182.375 168.6925 182.375 166.3125 C158.615 166.3125 134.855 166.3125 110.375 166.3125 C110.375 168.6225 110.375 170.9325 110.375 173.3125 C111.220625 173.47105469 112.06625 173.62960938 112.9375 173.79296875 C121.61189274 175.57713362 128.18210845 177.79575115 134.4375 184.1875 C136.96794343 188.26886036 136.40733943 189.66653574 135.375 194.3125 C134.22865769 197.53336585 132.86077476 200.63825693 131.46484375 203.7578125 C131.06576813 204.6684848 130.6666925 205.5791571 130.25552368 206.51742554 C128.94902349 209.49430245 127.63072455 212.4657988 126.3125 215.4375 C125.39937394 217.51326069 124.48719299 219.58943737 123.57592773 221.66601562 C121.72806231 225.87548084 119.87654997 230.08331166 118.02246094 234.29003906 C114.6183883 242.02249336 111.26485948 249.77651338 107.9197998 257.53463745 C106.28983051 261.31438576 104.65644204 265.09265606 103.0234375 268.87109375 C102.71200806 269.59190628 102.40057861 270.31271881 102.07971191 271.05537415 C99.07993267 277.99783499 96.07148851 284.93652571 93.0625 291.875 C84.47627628 311.6772377 75.92813316 331.49595367 67.375 351.3125 C59.31220141 334.15425313 51.51634869 316.87574062 43.74707031 299.58300781 C42.24347059 296.2377686 40.73309777 292.89578573 39.21386719 289.55761719 C37.62064541 286.05653579 36.04324783 282.5488196 34.47955322 279.03445435 C33.91567379 277.77449533 33.34592035 276.51714663 32.7699585 275.26266479 C31.98167436 273.54303452 31.21679795 271.81273162 30.453125 270.08203125 C30.02418945 269.12917236 29.59525391 268.17631348 29.15332031 267.19458008 C27.23046126 260.07433194 30.54640745 254.24494409 33.6796875 248.03125 C34.11494751 247.14802567 34.55020752 246.26480133 34.99865723 245.35481262 C36.40653869 242.50269559 37.82785877 239.65752973 39.25 236.8125 C40.70164218 233.88624874 42.15049255 230.95862742 43.59902954 228.03083801 C44.5504834 226.10821435 45.50309189 224.18616162 46.45687866 222.26469421 C49.02376896 217.08517441 51.53922323 211.88990273 53.96875 206.64453125 C54.4548877 205.59652344 54.94102539 204.54851562 55.44189453 203.46875 C56.27639884 201.65458311 57.10132419 199.835958 57.91357422 198.01171875 C62.79053474 187.47250623 70.06963354 180.78097278 80.76953125 176.3125 C85.26566127 174.71932275 89.63789961 173.81644685 94.375 173.3125 C94.375 171.0025 94.375 168.6925 94.375 166.3125 C71.275 166.3125 48.175 166.3125 24.375 166.3125 C24.375 168.6225 24.375 170.9325 24.375 173.3125 C25.54417969 173.49425781 26.71335937 173.67601562 27.91796875 173.86328125 C29.46623648 174.11663415 31.0144087 174.37057126 32.5625 174.625 C33.71588867 174.80192383 33.71588867 174.80192383 34.89257812 174.98242188 C39.28295556 175.71729192 42.77697323 176.50784857 46.375 179.3125 C49.11756404 186.32127478 45.1747506 192.80258698 42.375 199.3125 C39.48885778 205.76153753 36.42617957 212.1279472 33.375 218.5 C32.57249812 220.18664988 31.77041245 221.87349786 30.96875 223.56054688 C29.10354413 227.48087801 27.22703318 231.39559088 25.34130859 235.30609131 C24.47985309 237.09478679 23.62428203 238.88631356 22.76953125 240.67822266 C22.32996094 241.58491699 21.89039063 242.49161133 21.4375 243.42578125 C21.07785156 244.17255127 20.71820313 244.91932129 20.34765625 245.6887207 C19.375 247.3125 19.375 247.3125 17.375 248.3125 C16.99214844 247.07242188 16.60929688 245.83234375 16.21484375 244.5546875 C14.23828167 238.63538599 11.59799767 233.07459832 8.9375 227.4375 C7.87152311 225.13972759 6.80644875 222.8415363 5.7421875 220.54296875 C4.04774514 216.8951971 2.3481385 213.25047905 0.62597656 209.61572266 C-0.5286301 207.1779268 -1.67180596 204.73537899 -2.80297852 202.28662109 C-3.86983899 199.97825055 -4.95298277 197.67731639 -6.05444336 195.38525391 C-9.09725343 188.73579361 -10.21827238 184.50865441 -8.625 177.3125 C-3.27734112 175.41216128 1.71973314 173.91412413 7.375 173.3125 C7.375 171.0025 7.375 168.6925 7.375 166.3125 C-19.025 166.3125 -45.425 166.3125 -72.625 166.3125 C-72.625 168.6225 -72.625 170.9325 -72.625 173.3125 C-70.706875 173.56773437 -70.706875 173.56773437 -68.75 173.828125 C-67.04156234 174.07218752 -65.33323461 174.31702036 -63.625 174.5625 C-62.78582031 174.67207031 -61.94664062 174.78164062 -61.08203125 174.89453125 C-53.03796206 176.07931663 -47.05387854 178.07024401 -41.84329224 184.57980347 C-39.7581035 187.54542961 -38.30868478 190.7392593 -36.83984375 194.04296875 C-36.33326485 195.15226242 -36.33326485 195.15226242 -35.81645203 196.28396606 C-34.72269181 198.68529416 -33.64245475 201.09243575 -32.5625 203.5 C-31.80264695 205.17570392 -31.04206048 206.85107544 -30.28076172 208.52612305 C-25.40454558 219.27514999 -20.57842221 230.04842984 -15.83105469 240.85498047 C-13.43261696 246.30635623 -10.97525781 251.71851765 -8.41015625 257.09375 C-7.89050293 258.19162842 -7.37084961 259.28950684 -6.83544922 260.4206543 C-5.84900685 262.49616825 -4.85008475 264.56581542 -3.83642578 266.62817383 C-3.39927246 267.55138428 -2.96211914 268.47459473 -2.51171875 269.42578125 C-2.12201904 270.22798096 -1.73231934 271.03018066 -1.33081055 271.85668945 C0.34939855 277.70284072 -2.47654969 282.4862899 -5.23828125 287.52734375 C-5.78677986 288.55329651 -5.78677986 288.55329651 -6.34635925 289.59997559 C-7.5357179 291.82087683 -8.7366136 294.03531449 -9.9375 296.25 C-10.76397238 297.7892844 -11.58948686 299.32908348 -12.4140625 300.86938477 C-14.05648107 303.93664172 -15.70217795 307.0021018 -17.35009766 310.06640625 C-20.32244425 315.60296371 -23.2308287 321.17224894 -26.125 326.75 C-28.92117212 332.13411354 -31.72523683 337.51285391 -34.578125 342.8671875 C-35.04927734 343.75349854 -35.52042969 344.63980957 -36.00585938 345.55297852 C-36.89430866 347.22198943 -37.78604428 348.88925666 -38.68164062 350.55444336 C-40.84372178 354.22896203 -40.84372178 354.22896203 -41.625 358.3125 C-44.105037 356.08857475 -45.36469524 354.0725918 -46.65527344 351.01342773 C-47.0276413 350.14107986 -47.40000916 349.26873199 -47.78366089 348.36994934 C-48.17989655 347.421577 -48.5761322 346.47320465 -48.984375 345.49609375 C-49.40550568 344.50506149 -49.82663635 343.51402924 -50.26052856 342.4929657 C-51.16620156 340.35985082 -52.06864471 338.22536234 -52.96820068 336.08966064 C-55.33691449 330.46647035 -57.72867464 324.85308295 -60.1171875 319.23828125 C-60.59209625 318.12003967 -61.067005 317.0017981 -61.55630493 315.84967041 C-65.45665871 306.67573068 -69.44969422 297.5460313 -73.5 288.4375 C-78.47987064 277.22262823 -83.36906318 265.97268808 -88.1875 254.6875 C-93.16055879 243.0413386 -98.17312218 231.41381985 -103.25 219.8125 C-103.68241501 218.82331573 -103.68241501 218.82331573 -104.12356567 217.81414795 C-104.94852961 215.92772664 -105.77480455 214.04188565 -106.6015625 212.15625 C-107.36496948 210.41432373 -107.36496948 210.41432373 -108.14379883 208.63720703 C-109.93231933 204.62269043 -111.79899361 200.64726578 -113.70043945 196.68505859 C-115.19041337 192.86156599 -115.47519279 189.32055172 -114.625 185.3125 C-111.97537635 180.34445567 -107.73377337 178.22829001 -102.625 176.3125 C-98.65328116 175.17355121 -94.65981162 174.20015856 -90.625 173.3125 C-90.625 171.0025 -90.625 168.6925 -90.625 166.3125 C-120.655 166.3125 -150.685 166.3125 -181.625 166.3125 Z " fill="#000000" transform="translate(255.625,-0.3125)"/>
</svg>
